<svg id="Layer_1" data-name="Layer 1" xmlns="http://www.w3.org/2000/svg" xmlns:xlink="http://www.w3.org/1999/xlink" viewBox="0 0 123.43 64.39"><defs><style>.cls-1{fill:#ff6907;}.cls-2{fill:url(#linear-gradient);}.cls-3{fill:url(#linear-gradient-2);}.cls-4{fill:url(#linear-gradient-3);}.cls-5{fill:url(#linear-gradient-4);}.cls-6{fill:url(#linear-gradient-5);}.cls-7{fill:url(#linear-gradient-6);}.cls-8{fill:url(#linear-gradient-7);}.cls-9{fill:url(#linear-gradient-8);}.cls-10{fill:url(#linear-gradient-9);}.cls-11{fill:url(#linear-gradient-10);}.cls-12{fill:url(#linear-gradient-11);}.cls-13{fill:url(#linear-gradient-12);}.cls-14{fill:url(#linear-gradient-13);}.cls-15{fill:url(#linear-gradient-14);}.cls-16{fill:url(#linear-gradient-15);}.cls-17{fill:url(#linear-gradient-16);}.cls-18{fill:url(#linear-gradient-17);}.cls-19{fill:url(#linear-gradient-18);}.cls-20{fill:url(#linear-gradient-19);}.cls-21{fill:url(#linear-gradient-20);}.cls-22{fill:url(#linear-gradient-21);}.cls-23{fill:url(#linear-gradient-22);}.cls-24{fill:url(#linear-gradient-23);}.cls-25{fill:url(#linear-gradient-24);}.cls-26{fill:url(#linear-gradient-25);}.cls-27{fill:url(#linear-gradient-26);}.cls-28{fill:url(#linear-gradient-27);}.cls-29{fill:url(#linear-gradient-28);}.cls-30{fill:url(#linear-gradient-29);}.cls-31{fill:url(#linear-gradient-30);}.cls-32{fill:url(#linear-gradient-31);}.cls-33{fill:url(#linear-gradient-32);}.cls-34{fill:url(#linear-gradient-33);}.cls-35{fill:url(#linear-gradient-34);}.cls-36{fill:url(#linear-gradient-35);}.cls-37{fill:url(#linear-gradient-36);}.cls-38{fill:url(#linear-gradient-37);}.cls-39{fill:url(#linear-gradient-38);}.cls-40{fill:url(#linear-gradient-39);}.cls-41{fill:url(#linear-gradient-40);}.cls-42{fill:url(#linear-gradient-41);}.cls-43{fill:url(#linear-gradient-42);}.cls-44{fill:url(#linear-gradient-43);}.cls-45{fill:url(#linear-gradient-44);}.cls-46{fill:url(#linear-gradient-45);}.cls-47{fill:url(#linear-gradient-46);}.cls-48{fill:url(#linear-gradient-47);}.cls-49{fill:url(#linear-gradient-48);}.cls-50{fill:url(#linear-gradient-49);}.cls-51,.cls-53,.cls-54{fill:#f58220;}.cls-52{fill:#f58120;opacity:0.75;}.cls-53{opacity:0.5;}.cls-54{opacity:0.25;}</style><linearGradient id="linear-gradient" x1="80.51" y1="23.3" x2="80.51" y2="34.06" gradientTransform="matrix(1, 0, 0, -1, 0, 56)" gradientUnits="userSpaceOnUse"><stop offset="0" stop-color="#f58220" stop-opacity="0.25"/><stop offset="0.17" stop-color="#f58220" stop-opacity="0.5"/><stop offset="0.57" stop-color="#f58120" stop-opacity="0.75"/><stop offset="0.85" stop-color="#f58220"/><stop offset="1" stop-color="#f58220"/></linearGradient><linearGradient id="linear-gradient-2" x1="74.58" y1="26.71" x2="74.58" y2="37.47" xlink:href="#linear-gradient"/><linearGradient id="linear-gradient-3" x1="68.67" y1="30.13" x2="68.67" y2="40.88" xlink:href="#linear-gradient"/><linearGradient id="linear-gradient-4" x1="62.75" y1="33.54" x2="62.75" y2="44.3" xlink:href="#linear-gradient"/><linearGradient id="linear-gradient-5" x1="56.83" y1="36.96" x2="56.83" y2="47.71" xlink:href="#linear-gradient"/><linearGradient id="linear-gradient-6" x1="50.9" y1="40.37" x2="50.9" y2="51.13" xlink:href="#linear-gradient"/><linearGradient id="linear-gradient-7" x1="44.98" y1="43.78" x2="44.98" y2="54.54" xlink:href="#linear-gradient"/><linearGradient id="linear-gradient-8" x1="74.58" y1="19.89" x2="74.58" y2="30.64" xlink:href="#linear-gradient"/><linearGradient id="linear-gradient-9" x1="68.65" y1="23.3" x2="68.65" y2="34.06" xlink:href="#linear-gradient"/><linearGradient id="linear-gradient-10" x1="62.74" y1="26.72" x2="62.74" y2="37.47" xlink:href="#linear-gradient"/><linearGradient id="linear-gradient-11" x1="56.82" y1="30.13" x2="56.82" y2="40.89" xlink:href="#linear-gradient"/><linearGradient id="linear-gradient-12" x1="50.9" y1="33.54" x2="50.9" y2="44.3" xlink:href="#linear-gradient"/><linearGradient id="linear-gradient-13" x1="44.97" y1="36.96" x2="44.97" y2="47.71" xlink:href="#linear-gradient"/><linearGradient id="linear-gradient-14" x1="39.05" y1="40.37" x2="39.05" y2="51.13" xlink:href="#linear-gradient"/><linearGradient id="linear-gradient-15" x1="68.64" y1="16.48" x2="68.64" y2="27.23" xlink:href="#linear-gradient"/><linearGradient id="linear-gradient-16" x1="62.73" y1="19.89" x2="62.73" y2="30.65" xlink:href="#linear-gradient"/><linearGradient id="linear-gradient-17" x1="56.81" y1="23.3" x2="56.81" y2="34.06" xlink:href="#linear-gradient"/><linearGradient id="linear-gradient-18" x1="50.89" y1="26.72" x2="50.89" y2="37.47" xlink:href="#linear-gradient"/><linearGradient id="linear-gradient-19" x1="44.96" y1="30.13" x2="44.96" y2="40.89" xlink:href="#linear-gradient"/><linearGradient id="linear-gradient-20" x1="39.04" y1="33.55" x2="39.04" y2="44.3" xlink:href="#linear-gradient"/><linearGradient id="linear-gradient-21" x1="33.12" y1="36.96" x2="33.12" y2="47.72" xlink:href="#linear-gradient"/><linearGradient id="linear-gradient-22" x1="62.71" y1="13.06" x2="62.71" y2="23.82" xlink:href="#linear-gradient"/><linearGradient id="linear-gradient-23" x1="56.8" y1="16.48" x2="56.8" y2="27.23" xlink:href="#linear-gradient"/><linearGradient id="linear-gradient-24" x1="50.87" y1="19.89" x2="50.87" y2="30.65" xlink:href="#linear-gradient"/><linearGradient id="linear-gradient-25" x1="44.95" y1="23.31" x2="44.95" y2="34.06" xlink:href="#linear-gradient"/><linearGradient id="linear-gradient-26" x1="39.03" y1="26.72" x2="39.03" y2="37.48" xlink:href="#linear-gradient"/><linearGradient id="linear-gradient-27" x1="33.11" y1="30.13" x2="33.11" y2="40.89" xlink:href="#linear-gradient"/><linearGradient id="linear-gradient-28" x1="27.19" y1="33.55" x2="27.19" y2="44.3" xlink:href="#linear-gradient"/><linearGradient id="linear-gradient-29" x1="56.78" y1="9.65" x2="56.78" y2="20.41" xlink:href="#linear-gradient"/><linearGradient id="linear-gradient-30" x1="50.86" y1="13.07" x2="50.86" y2="23.82" xlink:href="#linear-gradient"/><linearGradient id="linear-gradient-31" x1="44.94" y1="16.48" x2="44.94" y2="27.24" xlink:href="#linear-gradient"/><linearGradient id="linear-gradient-32" x1="39.02" y1="19.89" x2="39.02" y2="30.65" xlink:href="#linear-gradient"/><linearGradient id="linear-gradient-33" x1="33.1" y1="23.31" x2="33.1" y2="34.06" xlink:href="#linear-gradient"/><linearGradient id="linear-gradient-34" x1="27.17" y1="26.72" x2="27.17" y2="37.48" xlink:href="#linear-gradient"/><linearGradient id="linear-gradient-35" x1="21.25" y1="30.14" x2="21.25" y2="40.89" xlink:href="#linear-gradient"/><linearGradient id="linear-gradient-36" x1="50.85" y1="6.24" x2="50.85" y2="17" xlink:href="#linear-gradient"/><linearGradient id="linear-gradient-37" x1="44.93" y1="9.65" x2="44.93" y2="20.41" xlink:href="#linear-gradient"/><linearGradient id="linear-gradient-38" x1="39.01" y1="13.07" x2="39.01" y2="23.82" xlink:href="#linear-gradient"/><linearGradient id="linear-gradient-39" x1="33.09" y1="16.48" x2="33.09" y2="27.24" xlink:href="#linear-gradient"/><linearGradient id="linear-gradient-40" x1="27.17" y1="19.9" x2="27.17" y2="30.65" xlink:href="#linear-gradient"/><linearGradient id="linear-gradient-41" x1="21.24" y1="23.31" x2="21.24" y2="34.07" xlink:href="#linear-gradient"/><linearGradient id="linear-gradient-42" x1="15.32" y1="26.72" x2="15.32" y2="37.48" xlink:href="#linear-gradient"/><linearGradient id="linear-gradient-43" x1="44.92" y1="2.83" x2="44.92" y2="13.58" xlink:href="#linear-gradient"/><linearGradient id="linear-gradient-44" x1="39" y1="6.24" x2="39" y2="17" xlink:href="#linear-gradient"/><linearGradient id="linear-gradient-45" x1="33.08" y1="9.66" x2="33.08" y2="20.41" xlink:href="#linear-gradient"/><linearGradient id="linear-gradient-46" x1="27.15" y1="13.07" x2="27.15" y2="23.83" xlink:href="#linear-gradient"/><linearGradient id="linear-gradient-47" x1="21.23" y1="16.48" x2="21.23" y2="27.24" xlink:href="#linear-gradient"/><linearGradient id="linear-gradient-48" x1="15.31" y1="19.9" x2="15.31" y2="30.65" xlink:href="#linear-gradient"/><linearGradient id="linear-gradient-49" x1="9.39" y1="23.31" x2="9.39" y2="34.07" xlink:href="#linear-gradient"/></defs><title>tiles - 3P</title><path class="cls-1" d="M44.27,54.76l-.06,0L.06,29.28a.13.13,0,0,1,0-.22L44.21,3.6a.17.17,0,0,1,.14,0L88.5,29.06a.11.11,0,0,1,.06.11.13.13,0,0,1-.06.11L44.35,54.74ZM.39,29.18,44.28,54.49l43.9-25.31L44.28,3.88Z" transform="translate(34.87 0)"/><path class="cls-2" d="M82.88,21.85H78.13v6.83a1.13,1.13,0,0,0,.7,1,3.75,3.75,0,0,0,3.36,0,1.15,1.15,0,0,0,.69-1Z" transform="translate(34.87 0)"/><path class="cls-3" d="M77,18.45H72.21v6.82a1.13,1.13,0,0,0,.69,1,3.69,3.69,0,0,0,3.36,0,1.15,1.15,0,0,0,.7-1Z" transform="translate(34.87 0)"/><path class="cls-4" d="M71.05,15H66.29v6.82a1.17,1.17,0,0,0,.7,1,3.75,3.75,0,0,0,3.36,0,1.19,1.19,0,0,0,.7-1Z" transform="translate(34.87 0)"/><path class="cls-5" d="M65.13,11.61H60.37v6.83a1.16,1.16,0,0,0,.7,1,3.75,3.75,0,0,0,3.36,0,1.18,1.18,0,0,0,.7-1Z" transform="translate(34.87 0)"/><path class="cls-6" d="M59.2,8.2H54.45V15a1.13,1.13,0,0,0,.7,1,3.75,3.75,0,0,0,3.36,0,1.15,1.15,0,0,0,.69-1Z" transform="translate(34.87 0)"/><path class="cls-7" d="M53.28,4.79H48.53v6.82a1.13,1.13,0,0,0,.69,1,3.71,3.71,0,0,0,3.37,0,1.15,1.15,0,0,0,.69-1Z" transform="translate(34.87 0)"/><path class="cls-8" d="M47.36,1.38H42.61V8.2a1.17,1.17,0,0,0,.69,1,3.75,3.75,0,0,0,3.36,0,1.19,1.19,0,0,0,.7-1Z" transform="translate(34.87 0)"/><path class="cls-9" d="M77,25.27H72.2V32.1a1.16,1.16,0,0,0,.7,1,3.75,3.75,0,0,0,3.36,0,1.17,1.17,0,0,0,.69-1Z" transform="translate(34.87 0)"/><path class="cls-10" d="M71,21.85H66.28v6.83a1.13,1.13,0,0,0,.69,1,3.77,3.77,0,0,0,3.37,0,1.15,1.15,0,0,0,.69-1Z" transform="translate(34.87 0)"/><path class="cls-11" d="M65.12,18.44H60.36v6.82a1.15,1.15,0,0,0,.7,1,3.69,3.69,0,0,0,3.36,0,1.17,1.17,0,0,0,.7-1Z" transform="translate(34.87 0)"/><path class="cls-12" d="M59.2,15H54.44v6.82a1.17,1.17,0,0,0,.7,1,3.75,3.75,0,0,0,3.36,0,1.19,1.19,0,0,0,.7-1Z" transform="translate(34.87 0)"/><path class="cls-13" d="M53.27,11.61H48.52v6.83a1.17,1.17,0,0,0,.7,1,3.75,3.75,0,0,0,3.36,0,1.18,1.18,0,0,0,.69-1Z" transform="translate(34.87 0)"/><path class="cls-14" d="M47.35,8.2H42.6V15a1.13,1.13,0,0,0,.69,1,3.77,3.77,0,0,0,3.37,0,1.15,1.15,0,0,0,.69-1Z" transform="translate(34.87 0)"/><path class="cls-15" d="M41.43,4.79H36.68v6.82a1.13,1.13,0,0,0,.69,1,3.69,3.69,0,0,0,3.36,0,1.17,1.17,0,0,0,.7-1Z" transform="translate(34.87 0)"/><path class="cls-16" d="M71,28.68H66.27v6.83a1.16,1.16,0,0,0,.69,1,3.75,3.75,0,0,0,3.36,0,1.19,1.19,0,0,0,.7-1Z" transform="translate(34.87 0)"/><path class="cls-17" d="M65.11,25.27H60.35V32.1a1.16,1.16,0,0,0,.7,1,3.75,3.75,0,0,0,3.36,0,1.18,1.18,0,0,0,.7-1Z" transform="translate(34.87 0)"/><path class="cls-18" d="M59.18,21.85H54.43v6.83a1.15,1.15,0,0,0,.7,1,3.75,3.75,0,0,0,3.36,0,1.15,1.15,0,0,0,.69-1Z" transform="translate(34.87 0)"/><path class="cls-19" d="M53.26,18.44H48.51v6.82a1.15,1.15,0,0,0,.69,1,3.71,3.71,0,0,0,3.37,0,1.15,1.15,0,0,0,.69-1Z" transform="translate(34.87 0)"/><path class="cls-20" d="M47.34,15H42.59v6.82a1.17,1.17,0,0,0,.69,1,3.75,3.75,0,0,0,3.36,0,1.17,1.17,0,0,0,.7-1Z" transform="translate(34.87 0)"/><path class="cls-21" d="M41.42,11.61H36.66v6.83a1.17,1.17,0,0,0,.7,1,3.75,3.75,0,0,0,3.36,0,1.19,1.19,0,0,0,.7-1Z" transform="translate(34.87 0)"/><path class="cls-22" d="M35.5,8.19H30.74V15a1.15,1.15,0,0,0,.7,1,3.75,3.75,0,0,0,3.36,0,1.17,1.17,0,0,0,.7-1Z" transform="translate(34.87 0)"/><path class="cls-23" d="M65.09,32.1H60.33v6.82a1.17,1.17,0,0,0,.7,1,3.75,3.75,0,0,0,3.36,0,1.19,1.19,0,0,0,.7-1Z" transform="translate(34.87 0)"/><path class="cls-24" d="M59.17,28.68H54.42v6.83a1.15,1.15,0,0,0,.7,1,3.75,3.75,0,0,0,3.36,0,1.18,1.18,0,0,0,.69-1Z" transform="translate(34.87 0)"/><path class="cls-25" d="M53.25,25.26H48.5v6.83a1.15,1.15,0,0,0,.69,1,3.75,3.75,0,0,0,3.36,0,1.16,1.16,0,0,0,.7-1Z" transform="translate(34.87 0)"/><path class="cls-26" d="M47.33,21.85H42.57v6.83a1.15,1.15,0,0,0,.7,1,3.75,3.75,0,0,0,3.36,0,1.17,1.17,0,0,0,.7-1Z" transform="translate(34.87 0)"/><path class="cls-27" d="M41.41,18.44H36.65v6.82a1.15,1.15,0,0,0,.7,1,3.69,3.69,0,0,0,3.36,0,1.17,1.17,0,0,0,.7-1Z" transform="translate(34.87 0)"/><path class="cls-28" d="M35.49,15H30.73v6.82a1.17,1.17,0,0,0,.7,1,3.75,3.75,0,0,0,3.36,0,1.19,1.19,0,0,0,.7-1Z" transform="translate(34.87 0)"/><path class="cls-29" d="M29.56,11.61H24.81v6.83a1.14,1.14,0,0,0,.7,1,3.75,3.75,0,0,0,3.36,0,1.17,1.17,0,0,0,.69-1Z" transform="translate(34.87 0)"/><path class="cls-30" d="M59.16,35.51H54.41v6.82a1.15,1.15,0,0,0,.69,1,3.69,3.69,0,0,0,3.36,0,1.15,1.15,0,0,0,.7-1Z" transform="translate(34.87 0)"/><path class="cls-31" d="M53.24,32.09H48.48v6.82a1.17,1.17,0,0,0,.7,1,3.75,3.75,0,0,0,3.36,0,1.19,1.19,0,0,0,.7-1Z" transform="translate(34.87 0)"/><path class="cls-32" d="M47.32,28.68H42.56v6.83a1.17,1.17,0,0,0,.7,1,3.75,3.75,0,0,0,3.36,0,1.19,1.19,0,0,0,.7-1Z" transform="translate(34.87 0)"/><path class="cls-33" d="M41.4,25.26H36.64v6.83a1.16,1.16,0,0,0,.7,1,3.75,3.75,0,0,0,3.36,0,1.18,1.18,0,0,0,.7-1Z" transform="translate(34.87 0)"/><path class="cls-34" d="M35.47,21.84H30.72v6.83a1.13,1.13,0,0,0,.7,1,3.75,3.75,0,0,0,3.36,0,1.15,1.15,0,0,0,.69-1Z" transform="translate(34.87 0)"/><path class="cls-35" d="M29.55,18.44H24.8v6.82a1.13,1.13,0,0,0,.69,1,3.69,3.69,0,0,0,3.36,0,1.15,1.15,0,0,0,.7-1Z" transform="translate(34.87 0)"/><path class="cls-36" d="M23.63,15H18.88v6.82a1.16,1.16,0,0,0,.69,1,3.75,3.75,0,0,0,3.36,0,1.19,1.19,0,0,0,.7-1Z" transform="translate(34.87 0)"/><path class="cls-37" d="M53.23,38.91H48.48v6.83a1.15,1.15,0,0,0,.69,1,3.75,3.75,0,0,0,3.36,0,1.16,1.16,0,0,0,.7-1Z" transform="translate(34.87 0)"/><path class="cls-38" d="M47.31,35.51H42.56v6.82a1.12,1.12,0,0,0,.69,1,3.69,3.69,0,0,0,3.36,0,1.17,1.17,0,0,0,.7-1Z" transform="translate(34.87 0)"/><path class="cls-39" d="M41.39,32.09H36.63v6.82a1.17,1.17,0,0,0,.7,1,3.75,3.75,0,0,0,3.36,0,1.19,1.19,0,0,0,.7-1Z" transform="translate(34.87 0)"/><path class="cls-40" d="M35.47,28.68H30.71v6.83a1.17,1.17,0,0,0,.7,1,3.75,3.75,0,0,0,3.36,0,1.19,1.19,0,0,0,.7-1Z" transform="translate(34.87 0)"/><path class="cls-41" d="M29.54,25.26H24.79v6.83a1.14,1.14,0,0,0,.7,1,3.75,3.75,0,0,0,3.36,0,1.17,1.17,0,0,0,.69-1Z" transform="translate(34.87 0)"/><path class="cls-42" d="M23.62,21.84H18.87v6.83a1.13,1.13,0,0,0,.69,1,3.75,3.75,0,0,0,3.36,0,1.15,1.15,0,0,0,.7-1Z" transform="translate(34.87 0)"/><path class="cls-43" d="M17.7,18.44H13v6.82a1.13,1.13,0,0,0,.69,1,3.69,3.69,0,0,0,3.36,0,1.17,1.17,0,0,0,.7-1Z" transform="translate(34.87 0)"/><path class="cls-44" d="M47.3,42.33H42.54v6.83a1.17,1.17,0,0,0,.7,1,3.75,3.75,0,0,0,3.36,0,1.19,1.19,0,0,0,.7-1Z" transform="translate(34.87 0)"/><path class="cls-45" d="M41.38,38.91H36.63v6.83a1.15,1.15,0,0,0,.69,1,3.75,3.75,0,0,0,3.36,0,1.18,1.18,0,0,0,.7-1Z" transform="translate(34.87 0)"/><path class="cls-46" d="M35.45,35.51H30.7v6.82a1.13,1.13,0,0,0,.7,1,3.69,3.69,0,0,0,3.36,0,1.15,1.15,0,0,0,.69-1Z" transform="translate(34.87 0)"/><path class="cls-47" d="M29.53,32.09H24.78v6.82a1.16,1.16,0,0,0,.69,1,3.77,3.77,0,0,0,3.37,0,1.18,1.18,0,0,0,.69-1Z" transform="translate(34.87 0)"/><path class="cls-48" d="M23.61,28.67H18.86V35.5a1.17,1.17,0,0,0,.69,1,3.75,3.75,0,0,0,3.36,0,1.19,1.19,0,0,0,.7-1Z" transform="translate(34.87 0)"/><path class="cls-49" d="M17.69,25.26H12.93v6.83a1.17,1.17,0,0,0,.7,1,3.75,3.75,0,0,0,3.36,0,1.18,1.18,0,0,0,.7-1Z" transform="translate(34.87 0)"/><path class="cls-50" d="M11.77,21.84H7v6.83a1.15,1.15,0,0,0,.7,1,3.75,3.75,0,0,0,3.36,0,1.17,1.17,0,0,0,.7-1Z" transform="translate(34.87 0)"/><rect class="cls-51" y="12.31" width="15.78" height="10.93"/><rect class="cls-52" y="25.26" width="15.78" height="10.93"/><rect class="cls-53" y="40.28" width="15.78" height="10.93"/><rect class="cls-54" y="53.46" width="15.78" height="10.93"/><path class="cls-1" d="M78.82,20.89a1,1,0,0,0,0,1.95,3.75,3.75,0,0,0,3.36,0c.94-.53.94-1.4,0-1.95A3.69,3.69,0,0,0,78.82,20.89Z" transform="translate(34.87 0)"/><path class="cls-1" d="M72.9,17.48a1,1,0,0,0,0,1.94,3.75,3.75,0,0,0,3.36,0c.94-.53.94-1.4,0-1.94A3.69,3.69,0,0,0,72.9,17.48Z" transform="translate(34.87 0)"/><path class="cls-1" d="M67,14.06A1,1,0,0,0,67,16a3.75,3.75,0,0,0,3.36,0,1,1,0,0,0,0-1.94A3.75,3.75,0,0,0,67,14.06Z" transform="translate(34.87 0)"/><path class="cls-1" d="M61.06,10.65a1,1,0,0,0,0,1.94,3.69,3.69,0,0,0,3.36,0,1,1,0,0,0,0-1.94A3.69,3.69,0,0,0,61.06,10.65Z" transform="translate(34.87 0)"/><path class="cls-1" d="M55.14,7.23c-.93.53-.93,1.4,0,1.95a3.77,3.77,0,0,0,3.37,0,1,1,0,0,0,0-1.95A3.77,3.77,0,0,0,55.14,7.23Z" transform="translate(34.87 0)"/><path class="cls-1" d="M49.22,3.81a1,1,0,0,0,0,1.95,3.75,3.75,0,0,0,3.36,0c.94-.53.94-1.4,0-1.95A3.75,3.75,0,0,0,49.22,3.81Z" transform="translate(34.87 0)"/><path class="cls-1" d="M43.3.41a1,1,0,0,0,0,1.94,3.75,3.75,0,0,0,3.36,0,1,1,0,0,0,0-1.94A3.63,3.63,0,0,0,43.3.41Z" transform="translate(34.87 0)"/><path class="cls-1" d="M72.89,24.3a1,1,0,0,0,0,1.94,3.71,3.71,0,0,0,3.37,0,1,1,0,0,0,0-1.94A3.77,3.77,0,0,0,72.89,24.3Z" transform="translate(34.87 0)"/><path class="cls-1" d="M67,20.88c-.93.53-.93,1.4,0,1.95a3.75,3.75,0,0,0,3.36,0,1,1,0,0,0,0-1.95A3.75,3.75,0,0,0,67,20.88Z" transform="translate(34.87 0)"/><path class="cls-1" d="M61.05,17.48a1,1,0,0,0,0,1.94,3.75,3.75,0,0,0,3.36,0,1,1,0,0,0,0-1.94A3.63,3.63,0,0,0,61.05,17.48Z" transform="translate(34.87 0)"/><path class="cls-1" d="M55.14,14.06c-.94.53-.94,1.4,0,1.94a3.75,3.75,0,0,0,3.36,0,1,1,0,0,0,0-1.94A3.75,3.75,0,0,0,55.14,14.06Z" transform="translate(34.87 0)"/><path class="cls-1" d="M49.21,10.64a1,1,0,0,0,0,1.94,3.71,3.71,0,0,0,3.37,0,1,1,0,0,0,0-1.94A3.77,3.77,0,0,0,49.21,10.64Z" transform="translate(34.87 0)"/><path class="cls-1" d="M43.29,7.23c-.93.53-.93,1.4,0,1.95a3.75,3.75,0,0,0,3.36,0,1,1,0,0,0,0-1.95A3.72,3.72,0,0,0,43.29,7.23Z" transform="translate(34.87 0)"/><path class="cls-1" d="M37.37,3.81a1,1,0,0,0,0,1.95,3.75,3.75,0,0,0,3.36,0c.93-.53.93-1.4,0-1.95A3.75,3.75,0,0,0,37.37,3.81Z" transform="translate(34.87 0)"/><path class="cls-1" d="M67,27.71a1,1,0,0,0,0,1.94,3.75,3.75,0,0,0,3.36,0,1,1,0,0,0,0-1.94A3.75,3.75,0,0,0,67,27.71Z" transform="translate(34.87 0)"/><path class="cls-1" d="M61,24.3a1,1,0,0,0,0,1.94,3.69,3.69,0,0,0,3.36,0,1,1,0,0,0,0-1.94A3.69,3.69,0,0,0,61,24.3Z" transform="translate(34.87 0)"/><path class="cls-1" d="M55.12,20.88c-.94.53-.94,1.4,0,1.95a3.75,3.75,0,0,0,3.36,0,1,1,0,0,0,0-1.95A3.75,3.75,0,0,0,55.12,20.88Z" transform="translate(34.87 0)"/><path class="cls-1" d="M49.2,17.48a1,1,0,0,0,0,1.94,3.75,3.75,0,0,0,3.36,0c.94-.53.94-1.4,0-1.94A3.63,3.63,0,0,0,49.2,17.48Z" transform="translate(34.87 0)"/><path class="cls-1" d="M43.28,14.06a1,1,0,0,0,0,1.94,3.75,3.75,0,0,0,3.36,0,1,1,0,0,0,0-1.94A3.75,3.75,0,0,0,43.28,14.06Z" transform="translate(34.87 0)"/><path class="cls-1" d="M37.36,10.64a1,1,0,0,0,0,1.94,3.69,3.69,0,0,0,3.36,0,1,1,0,0,0,0-1.94A3.75,3.75,0,0,0,37.36,10.64Z" transform="translate(34.87 0)"/><path class="cls-1" d="M31.44,7.23c-.93.53-.93,1.4,0,1.95a3.75,3.75,0,0,0,3.36,0,1,1,0,0,0,0-1.95A3.69,3.69,0,0,0,31.44,7.23Z" transform="translate(34.87 0)"/><path class="cls-1" d="M61,31.13a1,1,0,0,0,0,1.94,3.75,3.75,0,0,0,3.36,0,1,1,0,0,0,0-1.94A3.66,3.66,0,0,0,61,31.13Z" transform="translate(34.87 0)"/><path class="cls-1" d="M55.11,27.71c-.94.53-.94,1.4,0,1.94a3.75,3.75,0,0,0,3.36,0,1,1,0,0,0,0-1.94A3.75,3.75,0,0,0,55.11,27.71Z" transform="translate(34.87 0)"/><path class="cls-1" d="M49.19,24.3c-.93.53-.93,1.4,0,1.95a3.75,3.75,0,0,0,3.36,0,1,1,0,0,0,0-1.95A3.69,3.69,0,0,0,49.19,24.3Z" transform="translate(34.87 0)"/><path class="cls-1" d="M43.27,20.88a1,1,0,0,0,0,1.95,3.75,3.75,0,0,0,3.36,0c.93-.53.93-1.4,0-1.95A3.75,3.75,0,0,0,43.27,20.88Z" transform="translate(34.87 0)"/><path class="cls-1" d="M37.35,17.47a1,1,0,0,0,0,1.94,3.75,3.75,0,0,0,3.36,0,1,1,0,0,0,0-1.94A3.69,3.69,0,0,0,37.35,17.47Z" transform="translate(34.87 0)"/><path class="cls-1" d="M31.43,14.06c-.94.53-.94,1.4,0,1.94a3.75,3.75,0,0,0,3.36,0,1,1,0,0,0,0-1.94A3.69,3.69,0,0,0,31.43,14.06Z" transform="translate(34.87 0)"/><path class="cls-1" d="M25.5,10.64a1,1,0,0,0,0,1.94,3.69,3.69,0,0,0,3.36,0c.94-.53.94-1.4,0-1.94A3.75,3.75,0,0,0,25.5,10.64Z" transform="translate(34.87 0)"/><path class="cls-1" d="M55.09,34.53a1,1,0,0,0,0,1.95,3.75,3.75,0,0,0,3.36,0c.94-.53.94-1.4,0-1.95A3.75,3.75,0,0,0,55.09,34.53Z" transform="translate(34.87 0)"/><path class="cls-1" d="M49.17,31.13a1,1,0,0,0,0,1.94,3.75,3.75,0,0,0,3.36,0c.94-.53.94-1.4,0-1.94A3.63,3.63,0,0,0,49.17,31.13Z" transform="translate(34.87 0)"/><path class="cls-1" d="M43.26,27.71a1,1,0,0,0,0,1.94,3.75,3.75,0,0,0,3.36,0,1,1,0,0,0,0-1.94A3.75,3.75,0,0,0,43.26,27.71Z" transform="translate(34.87 0)"/><path class="cls-1" d="M37.34,24.29c-.94.53-.94,1.4,0,1.94a3.69,3.69,0,0,0,3.36,0,1,1,0,0,0,0-1.94A3.75,3.75,0,0,0,37.34,24.29Z" transform="translate(34.87 0)"/><path class="cls-1" d="M31.41,20.88c-.93.53-.93,1.4,0,1.95a3.75,3.75,0,0,0,3.36,0c.94-.53.94-1.4,0-1.95A3.69,3.69,0,0,0,31.41,20.88Z" transform="translate(34.87 0)"/><path class="cls-1" d="M25.49,17.47a1,1,0,0,0,0,1.94,3.75,3.75,0,0,0,3.36,0c.94-.53.94-1.4,0-1.94A3.69,3.69,0,0,0,25.49,17.47Z" transform="translate(34.87 0)"/><path class="cls-1" d="M19.57,14.05a1,1,0,0,0,0,1.94,3.75,3.75,0,0,0,3.36,0,1,1,0,0,0,0-1.94A3.69,3.69,0,0,0,19.57,14.05Z" transform="translate(34.87 0)"/><path class="cls-1" d="M49.16,38c-.93.53-.93,1.4,0,1.95a3.75,3.75,0,0,0,3.36,0,1,1,0,0,0,0-1.95A3.69,3.69,0,0,0,49.16,38Z" transform="translate(34.87 0)"/><path class="cls-1" d="M43.24,34.53a1,1,0,0,0,0,1.95,3.75,3.75,0,0,0,3.36,0c.94-.53.94-1.4,0-1.95A3.75,3.75,0,0,0,43.24,34.53Z" transform="translate(34.87 0)"/><path class="cls-1" d="M37.33,31.12a1,1,0,0,0,0,1.94,3.75,3.75,0,0,0,3.36,0,1,1,0,0,0,0-1.94A3.69,3.69,0,0,0,37.33,31.12Z" transform="translate(34.87 0)"/><path class="cls-1" d="M31.41,27.71c-.94.53-.94,1.4,0,1.94a3.75,3.75,0,0,0,3.36,0,1,1,0,0,0,0-1.94A3.69,3.69,0,0,0,31.41,27.71Z" transform="translate(34.87 0)"/><path class="cls-1" d="M25.48,24.29a1,1,0,0,0,0,1.94,3.71,3.71,0,0,0,3.37,0,1,1,0,0,0,0-1.94A3.77,3.77,0,0,0,25.48,24.29Z" transform="translate(34.87 0)"/><path class="cls-1" d="M19.56,20.88c-.93.53-.93,1.4,0,1.95a3.75,3.75,0,0,0,3.36,0c.94-.53.94-1.4,0-1.95A3.69,3.69,0,0,0,19.56,20.88Z" transform="translate(34.87 0)"/><path class="cls-1" d="M13.64,17.47a1,1,0,0,0,0,1.94,3.75,3.75,0,0,0,3.36,0,1,1,0,0,0,0-1.94A3.69,3.69,0,0,0,13.64,17.47Z" transform="translate(34.87 0)"/><path class="cls-1" d="M43.23,41.36a1,1,0,0,0,0,1.94,3.69,3.69,0,0,0,3.36,0,1,1,0,0,0,0-1.94A3.75,3.75,0,0,0,43.23,41.36Z" transform="translate(34.87 0)"/><path class="cls-1" d="M37.32,37.94c-.93.53-.93,1.4,0,2a3.75,3.75,0,0,0,3.36,0,1,1,0,0,0,0-2A3.75,3.75,0,0,0,37.32,37.94Z" transform="translate(34.87 0)"/><path class="cls-1" d="M31.39,34.53a1,1,0,0,0,0,1.95,3.77,3.77,0,0,0,3.37,0c.93-.53.93-1.4,0-1.95A3.77,3.77,0,0,0,31.39,34.53Z" transform="translate(34.87 0)"/><path class="cls-1" d="M25.47,31.12a1,1,0,0,0,0,1.94,3.75,3.75,0,0,0,3.36,0c.94-.53.94-1.4,0-1.94A3.69,3.69,0,0,0,25.47,31.12Z" transform="translate(34.87 0)"/><path class="cls-1" d="M19.55,27.71a1,1,0,0,0,0,1.94,3.75,3.75,0,0,0,3.36,0,1,1,0,0,0,0-1.94A3.69,3.69,0,0,0,19.55,27.71Z" transform="translate(34.87 0)"/><path class="cls-1" d="M13.63,24.29c-.93.53-.93,1.4,0,1.95a3.75,3.75,0,0,0,3.36,0,1,1,0,0,0,0-1.95A3.75,3.75,0,0,0,13.63,24.29Z" transform="translate(34.87 0)"/><path class="cls-1" d="M7.71,20.87c-.94.53-.94,1.4,0,1.95a3.75,3.75,0,0,0,3.36,0,1,1,0,0,0,0-1.95A3.75,3.75,0,0,0,7.71,20.87Z" transform="translate(34.87 0)"/></svg>